<?xml version="1.0" standalone="no"?>
<!DOCTYPE svg PUBLIC "-//W3C//DTD SVG 20010904//EN"
 "http://www.w3.org/TR/2001/REC-SVG-20010904/DTD/svg10.dtd">
<svg version="1.0" xmlns="http://www.w3.org/2000/svg"
 width="225.000000pt" height="225.000000pt" viewBox="0 0 225.000000 225.000000"
 preserveAspectRatio="xMidYMid meet">

<g transform="translate(0.000000,225.000000) scale(0.100000,-0.100000)"
fill="#000000" stroke="none">
<path d="M990 2239 c-366 -42 -703 -280 -870 -616 -42 -86 -82 -205 -101 -303
-16 -84 -16 -306 0 -390 46 -236 157 -444 324 -607 437 -426 1127 -426 1564 0
167 163 278 371 324 607 16 84 16 306 0 390 -46 236 -157 444 -324 607 -180
176 -409 284 -660 312 -108 12 -149 12 -257 0z m261 -989 l59 0 1 48 1 47 15
-47 14 -48 68 0 c58 0 71 -3 90 -24 50 -53 31 -147 -38 -193 -23 -15 -41 -41
-56 -76 -28 -69 -77 -140 -120 -172 -24 -19 -35 -36 -37 -58 l-3 -32 -120 0
-120 0 -3 32 c-2 22 -13 39 -37 58 -43 32 -92 103 -121 173 -16 40 -30 58 -55
70 -69 35 -100 127 -62 182 26 38 31 40 136 40 l97 0 2 43 1 42 4 -42 4 -43
95 0 94 0 1 58 1 57 15 -57 15 -58 59 0z m-270 -627 c0 -10 3 -30 5 -45 3 -17
0 -28 -7 -28 -6 0 -9 7 -5 15 3 8 2 15 -3 15 -4 0 -8 14 -9 30 -1 31 17 43 19
13z m305 -15 c-2 -18 -4 -39 -5 -45 0 -7 -6 -13 -11 -13 -6 0 -9 12 -6 28 2
15 5 35 5 45 1 9 5 17 11 17 5 0 8 -15 6 -32z m-276 -66 c0 -13 -12 -22 -22
-16 -10 6 -1 24 13 24 5 0 9 -4 9 -8z m251 -5 c-1 -12 -15 -9 -19 4 -3 6 1 10
8 8 6 -3 11 -8 11 -12z m-209 -42 c12 -17 137 -12 148 5 7 12 12 12 21 3 10
-10 4 -16 -26 -29 -53 -22 -96 -20 -150 6 -44 21 -52 30 -38 43 6 7 32 -9 45
-28z m195 9 c-9 -9 -28 6 -21 18 4 6 10 6 17 -1 6 -6 8 -13 4 -17z"/>
</g>
</svg>
